<?xml version="1.0" encoding="UTF-8" standalone="no"?>
<!DOCTYPE svg PUBLIC "-//W3C//DTD SVG 1.1//EN" "http://www.w3.org/Graphics/SVG/1.1/DTD/svg11.dtd">
<svg width="100%" height="100%" viewBox="0 0 359 358" version="1.1" xmlns="http://www.w3.org/2000/svg" xmlns:xlink="http://www.w3.org/1999/xlink" xml:space="preserve" xmlns:serif="http://www.serif.com/" style="fill-rule:evenodd;clip-rule:evenodd;stroke-linecap:round;stroke-linejoin:round;stroke-miterlimit:1.5;">
    <g transform="matrix(1,0,0,1,-383,-1069)">
        <g transform="matrix(1,0,0,1,0,507.399)">
            <g transform="matrix(1,0,0,1,0,-89.8263)">
                <circle cx="562.5" cy="830.309" r="178.814" style="fill:rgb(59,59,59);"/>
            </g>
            <g transform="matrix(0.890487,0,0,0.890487,61.6013,1.10372)">
                <circle cx="562.5" cy="830.309" r="178.814" style="fill:none;stroke:rgb(35,35,35);stroke-width:11.79px;"/>
            </g>
            <g transform="matrix(0.720569,0,0,0.840995,157.18,117.74)">
                <path d="M573.683,636.433C573.683,634.126 571.497,632.252 568.803,632.252L556.197,632.252C553.503,632.252 551.317,634.126 551.317,636.433L551.317,844.532C551.317,846.839 553.503,848.713 556.197,848.713L568.803,848.713C571.497,848.713 573.683,846.839 573.683,844.532L573.683,636.433Z" style="fill:white;"/>
            </g>
            <g transform="matrix(-1.66137e-16,-1.31214,0.536,4.23672e-17,508.82,1992.37)">
                <path d="M951.151,143.443C952.858,140.029 955.311,140.029 957.018,143.443C967.385,164.176 1002.61,234.626 1020.13,269.675C1021.65,272.711 1022.23,277.757 1021.57,282.277C1020.91,286.798 1019.16,289.816 1017.2,289.816C988.443,289.816 919.727,289.816 890.969,289.816C889.008,289.816 887.26,286.798 886.601,282.277C885.943,277.757 886.517,272.711 888.035,269.675C905.559,234.626 940.784,164.176 951.151,143.443Z" style="fill:white;"/>
            </g>
            <g transform="matrix(1.66137e-16,-1.31214,-0.536,4.23672e-17,616.18,1992.37)">
                <path d="M951.151,143.443C952.858,140.029 955.311,140.029 957.018,143.443C967.385,164.176 1002.61,234.626 1020.13,269.675C1021.65,272.711 1022.23,277.757 1021.57,282.277C1020.91,286.798 1019.16,289.816 1017.2,289.816C988.443,289.816 919.727,289.816 890.969,289.816C889.008,289.816 887.26,286.798 886.601,282.277C885.943,277.757 886.517,272.711 888.035,269.675C905.559,234.626 940.784,164.176 951.151,143.443Z" style="fill:white;"/>
            </g>
        </g>
    </g>
</svg>
